<svg width="194" height="194" viewBox="0 0 194 194" fill="none" xmlns="http://www.w3.org/2000/svg">
<path d="M153.25 84.5C153.25 128.25 97 165.75 97 165.75C97 165.75 40.75 128.25 40.75 84.5C40.75 69.5816 46.6763 55.2742 57.2252 44.7252C67.7742 34.1763 82.0816 28.25 97 28.25C111.918 28.25 126.226 34.1763 136.775 44.7252C147.324 55.2742 153.25 69.5816 153.25 84.5Z" fill="#B3261E" fill-opacity="0.12"/>
<path d="M97 103.25C107.355 103.25 115.75 94.8553 115.75 84.5C115.75 74.1447 107.355 65.75 97 65.75C86.6447 65.75 78.25 74.1447 78.25 84.5C78.25 94.8553 86.6447 103.25 97 103.25Z" fill="#B3261E" fill-opacity="0.12"/>
<path d="M153.25 84.5C153.25 128.25 97 165.75 97 165.75C97 165.75 40.75 128.25 40.75 84.5C40.75 69.5816 46.6763 55.2742 57.2252 44.7252C67.7742 34.1763 82.0816 28.25 97 28.25C111.918 28.25 126.226 34.1763 136.775 44.7252C147.324 55.2742 153.25 69.5816 153.25 84.5Z" stroke="white" stroke-opacity="0.6" stroke-width="5" stroke-linecap="round" stroke-linejoin="round"/>
<path d="M97 103.25C107.355 103.25 115.75 94.8553 115.75 84.5C115.75 74.1447 107.355 65.75 97 65.75C86.6447 65.75 78.25 74.1447 78.25 84.5C78.25 94.8553 86.6447 103.25 97 103.25Z" stroke="white" stroke-opacity="0.6" stroke-width="5" stroke-linecap="round" stroke-linejoin="round"/>
</svg>
